<?xml version="1.0" standalone="no"?>
<!DOCTYPE svg PUBLIC "-//W3C//DTD SVG 20010904//EN"
 "http://www.w3.org/TR/2001/REC-SVG-20010904/DTD/svg10.dtd">
<svg version="1.0" xmlns="http://www.w3.org/2000/svg"
 width="1024.000000pt" height="1024.000000pt" viewBox="0 0 1024.000000 1024.000000"
 preserveAspectRatio="xMidYMid meet">

<g transform="translate(0.000000,1024.000000) scale(0.100000,-0.100000)"
fill="#000000" stroke="none">
<path d="M0 5120 l0 -5120 5120 0 5120 0 0 5120 0 5120 -5120 0 -5120 0 0
-5120z m5585 4360 c556 -64 1076 -230 1537 -491 829 -470 1462 -1196 1805
-2069 195 -496 283 -965 283 -1516 0 -802 -230 -1577 -661 -2221 -464 -694
-1124 -1249 -1845 -1552 -322 -135 -685 -234 -1009 -275 -346 -44 -817 -46
-1080 -6 -590 90 -1150 287 -1611 566 -473 286 -912 699 -1239 1165 -523 744
-791 1693 -725 2560 31 399 102 758 216 1096 117 344 332 761 551 1065 176
244 461 551 693 745 532 446 1117 722 1855 877 407 85 812 103 1230 56z"/>
<path d="M4850 9304 c-348 -43 -675 -105 -885 -169 -758 -230 -1435 -691
-1910 -1300 -276 -353 -501 -769 -647 -1195 -136 -397 -199 -788 -200 -1225 0
-469 55 -807 207 -1260 127 -381 301 -711 552 -1047 384 -513 820 -892 1311
-1142 149 -75 580 -249 743 -300 427 -132 838 -182 1274 -156 455 27 806 97
1180 236 578 215 962 460 1380 878 554 554 898 1150 1065 1840 85 352 112 579
113 946 0 337 -15 503 -73 790 -65 322 -151 575 -300 885 -211 437 -437 754
-789 1105 -212 211 -346 321 -591 484 -480 320 -1035 527 -1640 611 -111 16
-702 30 -790 19z m645 -353 c381 -90 739 -297 948 -548 151 -182 237 -346 332
-636 l62 -190 62 -22 c100 -36 156 -90 219 -210 25 -46 27 -59 27 -170 0 -116
-1 -123 -33 -187 -59 -121 -172 -222 -302 -269 -54 -20 -59 -24 -100 -97 -146
-258 -241 -394 -374 -531 -203 -210 -465 -363 -737 -430 -180 -45 -304 -61
-476 -61 -471 0 -853 144 -1166 440 -151 142 -301 345 -404 548 l-54 106 -57
21 c-87 32 -169 91 -220 159 -126 171 -142 312 -53 481 44 86 136 181 213 220
56 29 56 30 68 90 35 175 143 427 258 600 95 143 282 328 432 428 137 91 303
171 455 220 199 64 220 67 530 63 244 -3 292 -6 370 -25z m-2410 -2382 c22 -6
77 -33 122 -61 72 -43 93 -62 161 -151 104 -135 193 -268 342 -517 68 -113
164 -265 212 -338 l89 -133 27 40 c33 48 116 136 149 158 39 26 124 33 198 18
35 -8 128 -42 206 -76 191 -82 256 -104 417 -135 124 -24 152 -26 287 -21 112
4 187 14 295 36 188 40 392 57 507 41 151 -20 329 -90 477 -188 90 -59 251
-214 335 -321 126 -162 315 -508 445 -813 72 -169 81 -202 65 -239 -7 -17 -26
-40 -43 -50 -72 -44 -113 -13 -161 123 -117 333 -363 766 -543 958 -144 154
-346 277 -522 320 -121 28 -268 27 -435 -6 -437 -85 -540 -92 -730 -49 -146
33 -240 65 -415 140 -80 35 -164 68 -187 75 -58 18 -109 6 -151 -36 -32 -32
-34 -38 -30 -83 13 -130 123 -219 386 -312 240 -84 476 -126 892 -159 149 -12
202 -19 217 -29 23 -16 43 -59 43 -94 0 -44 -35 -87 -72 -87 -49 0 -559 51
-663 66 -316 45 -506 107 -705 228 -256 156 -396 304 -647 681 -55 83 -119
184 -143 225 -239 414 -437 648 -509 603 -42 -26 -21 -96 91 -293 36 -63 87
-162 113 -220 26 -58 62 -136 80 -175 88 -194 359 -630 521 -841 70 -91 104
-144 104 -161 0 -32 -65 -99 -105 -109 -18 -5 -38 -2 -54 7 -38 22 -165 213
-420 638 -126 210 -255 418 -287 464 -146 212 -329 417 -374 417 -21 0 -50
-35 -50 -60 0 -27 66 -154 134 -259 37 -56 95 -156 131 -221 66 -121 243 -414
317 -524 105 -156 273 -359 402 -486 51 -50 66 -71 66 -93 0 -38 -49 -87 -86
-87 -31 0 -73 41 -624 610 -350 361 -394 396 -440 355 -40 -36 -21 -83 95
-237 235 -312 728 -795 1002 -980 144 -96 369 -207 523 -257 77 -24 278 -65
405 -82 66 -9 176 -9 415 -3 179 5 404 8 500 7 160 -1 185 -4 295 -32 133 -34
273 -97 304 -138 45 -56 17 -123 -60 -143 -38 -10 -45 -9 -109 25 -38 19 -107
44 -152 55 -162 38 -275 43 -683 29 -530 -17 -695 0 -993 102 -230 79 -418
181 -648 352 -180 134 -295 237 -530 471 -517 518 -648 734 -560 922 54 117
199 164 317 104 21 -11 39 -19 39 -17 0 2 -36 64 -80 137 -189 316 -218 434
-138 555 25 37 46 54 95 78 65 30 111 33 181 12 20 -7 22 -4 22 36 0 52 45
152 83 187 51 47 155 65 242 41z m4471 -3636 l2 -381 -59 -28 c-52 -24 -61
-26 -73 -13 -8 8 -60 93 -116 189 -128 221 -130 224 -129 140 0 -36 4 -128 8
-206 5 -77 6 -158 2 -180 -6 -34 -11 -40 -51 -56 -57 -22 -86 -22 -94 -2 -10
26 -7 711 3 737 8 19 23 29 64 41 30 9 61 16 69 16 7 0 44 -55 82 -123 39 -67
86 -147 105 -177 l36 -55 5 220 5 220 60 22 c33 12 65 21 70 19 6 -2 10 -139
11 -383z m-4675 331 c145 -49 205 -79 257 -128 50 -46 72 -96 72 -161 0 -66
-18 -114 -54 -142 -32 -26 -32 -33 0 -64 45 -42 67 -97 68 -169 1 -117 -51
-180 -148 -180 -53 0 -270 67 -326 101 l-33 21 6 171 c4 95 7 268 7 385 0 116
4 212 9 212 5 0 69 -21 142 -46z m695 -193 c45 -10 86 -21 93 -25 12 -8 36
-85 106 -341 26 -93 64 -226 85 -295 56 -187 57 -190 26 -190 -14 0 -47 5 -75
11 -47 10 -51 13 -67 57 -46 127 -46 127 -110 145 -33 9 -81 18 -109 19 l-49
3 -14 -72 c-11 -56 -18 -73 -31 -73 -33 0 -122 31 -127 45 -3 7 8 69 25 137
17 67 51 211 76 318 60 259 66 280 79 280 6 0 48 -9 92 -19z m3260 -27 c45
-33 67 -70 71 -121 6 -59 -7 -73 -71 -80 -41 -5 -45 -3 -60 25 -9 17 -26 38
-38 46 -51 36 -146 7 -182 -54 -24 -41 -32 -184 -18 -320 9 -83 13 -97 36
-117 43 -36 106 -32 153 10 35 32 36 37 37 103 l1 69 -55 0 -55 0 -3 53 c-2
28 -2 52 0 52 2 0 54 11 117 24 159 34 154 38 149 -127 -4 -155 -16 -187 -98
-260 -105 -95 -278 -112 -364 -36 -60 53 -64 70 -68 324 l-3 230 28 48 c58 99
182 159 319 154 59 -2 83 -7 104 -23z m-2653 -88 c181 -21 255 -59 298 -151
34 -74 19 -169 -37 -220 l-34 -31 39 -42 c50 -53 64 -97 59 -182 -3 -55 -9
-74 -32 -105 -53 -69 -110 -77 -336 -47 l-125 17 -6 200 c-9 285 -10 551 -3
570 5 11 14 15 28 11 12 -3 79 -12 149 -20z m2068 -361 c-3 -310 -6 -382 -17
-391 -16 -13 -102 -27 -115 -18 -5 3 -9 175 -9 394 l0 389 28 4 c15 2 47 4 72
3 l45 -1 -4 -380z m-377 321 c56 -33 96 -96 96 -153 0 -48 -8 -53 -85 -53 -52
0 -54 1 -65 35 -15 44 -44 65 -93 65 -72 0 -115 -82 -67 -130 11 -11 57 -38
102 -61 46 -23 102 -55 125 -71 117 -80 131 -237 31 -334 -55 -53 -90 -71
-168 -83 -140 -23 -244 39 -271 160 -16 68 -7 79 61 79 67 0 90 -7 90 -25 0
-23 49 -72 76 -78 64 -12 124 29 124 84 0 44 -37 77 -134 123 -105 49 -171
103 -197 161 -34 74 -19 177 34 233 76 81 244 105 341 48z m-1173 -6 c11 -6
47 -67 80 -135 33 -69 64 -125 69 -125 4 0 38 59 75 130 l67 130 58 0 c71 0
90 -6 90 -31 0 -10 -49 -106 -110 -213 l-110 -195 0 -153 c0 -208 3 -200 -79
-196 -64 3 -66 4 -72 33 -4 17 -7 96 -8 176 l-1 146 -100 209 c-55 115 -100
214 -100 221 0 16 112 18 141 3z"/>
<path d="M5056 8775 c-62 -17 -96 -42 -119 -86 -27 -50 -18 -198 16 -271 44
-96 132 -164 227 -175 41 -5 56 -1 92 20 47 28 84 71 94 112 6 22 0 33 -39 69
-52 48 -67 79 -60 118 18 95 156 75 231 -34 41 -60 55 -112 49 -173 -7 -70
-28 -108 -98 -177 -83 -83 -160 -118 -263 -118 -67 0 -87 4 -140 30 -138 68
-224 163 -273 301 -24 65 -27 88 -26 194 1 66 6 133 12 149 6 16 10 30 8 33
-2 2 -43 -8 -90 -22 -295 -85 -640 -326 -794 -555 -116 -172 -184 -330 -253
-586 -21 -79 -41 -148 -44 -153 -3 -5 -36 -21 -72 -35 -141 -57 -202 -121
-211 -225 -8 -88 11 -146 67 -202 53 -53 118 -79 195 -79 28 0 58 -6 67 -12 9
-7 32 -58 52 -113 83 -225 185 -383 361 -560 303 -304 724 -463 1170 -442 220
11 372 52 600 162 168 81 280 162 408 295 153 158 256 322 380 601 l24 56 64
6 c125 12 203 56 246 140 21 43 24 61 21 123 -3 61 -8 79 -33 116 -42 59 -112
100 -180 106 -30 2 -59 10 -65 17 -6 7 -19 61 -30 121 -66 358 -193 600 -443
840 -198 191 -427 318 -702 390 -125 32 -367 43 -449 19z m-756 -1444 c14 -16
33 -41 44 -56 59 -85 206 -70 317 32 48 45 66 55 95 56 28 1 42 -5 60 -27 13
-15 24 -38 24 -52 0 -59 -61 -135 -152 -188 -114 -65 -286 -75 -385 -22 -114
62 -182 184 -142 257 25 47 99 47 139 0z m1817 7 c27 -25 31 -83 9 -127 -20
-38 -86 -96 -144 -125 -175 -89 -333 -71 -464 52 -57 53 -78 88 -78 131 0 43
9 60 42 77 43 22 80 10 128 -42 61 -66 95 -84 161 -84 71 0 147 37 190 92 18
22 42 44 53 49 30 12 76 2 103 -23z"/>
<path d="M2873 3044 c6 -98 15 -113 75 -121 59 -8 88 2 102 36 22 55 -12 108
-95 147 -85 41 -89 38 -82 -62z"/>
<path d="M2882 2703 l3 -108 30 -14 c16 -8 51 -16 76 -19 42 -4 49 -2 64 22
22 32 15 97 -13 135 -18 25 -94 72 -140 86 l-23 7 3 -109z"/>
<path d="M3532 2743 c-19 -85 -29 -150 -23 -156 11 -11 149 -32 158 -24 7 7
-70 264 -91 305 -10 20 -16 5 -44 -125z"/>
<path d="M4158 2824 c-13 -13 -9 -149 5 -168 16 -22 94 -26 129 -7 29 15 48
50 48 87 0 32 -51 84 -82 84 -13 0 -39 3 -58 6 -19 3 -38 2 -42 -2z"/>
<path d="M4154 2505 c-4 -9 -4 -55 -2 -102 5 -103 14 -113 99 -113 51 0 60 3
79 28 18 22 21 36 17 75 -6 72 -46 106 -144 122 -35 5 -44 4 -49 -10z"/>
</g>
</svg>
