<?xml version="1.0" standalone="no"?>
<!DOCTYPE svg PUBLIC "-//W3C//DTD SVG 20010904//EN"
 "http://www.w3.org/TR/2001/REC-SVG-20010904/DTD/svg10.dtd">
<svg version="1.0" xmlns="http://www.w3.org/2000/svg"
 width="1024.000000pt" height="1024.000000pt" viewBox="0 0 1024.000000 1024.000000"
 preserveAspectRatio="xMidYMid meet">

<g transform="translate(0.000000,1024.000000) scale(0.100000,-0.100000)"
fill="#000000" stroke="none">
<path d="M4946 9050 c-353 -55 -673 -214 -934 -465 -249 -238 -405 -513 -482
-847 -22 -96 -23 -97 -59 -109 -123 -39 -220 -123 -274 -237 -30 -64 -32 -73
-32 -187 0 -114 2 -123 32 -188 60 -127 196 -234 319 -253 43 -6 48 -10 62
-48 35 -91 136 -276 200 -365 320 -447 803 -712 1347 -737 704 -34 1388 400
1656 1050 l37 90 59 12 c90 18 152 52 221 120 99 99 138 207 130 359 -8 151
-94 282 -231 350 -38 19 -77 35 -86 35 -13 0 -22 22 -40 96 -33 140 -66 235
-127 364 -229 481 -667 824 -1202 941 -79 17 -138 22 -317 24 -121 2 -246 0
-279 -5z m479 -200 c583 -83 1066 -502 1230 -1066 14 -49 34 -138 45 -199 22
-127 28 -135 109 -135 135 -1 224 -96 224 -240 0 -80 -25 -140 -79 -192 -50
-47 -109 -68 -194 -68 -82 0 -86 -4 -129 -130 -43 -126 -127 -285 -205 -390
-88 -118 -262 -283 -383 -363 -165 -110 -349 -189 -543 -232 -102 -22 -363
-31 -485 -15 -537 67 -976 382 -1205 863 -27 56 -59 134 -71 172 -32 102 -37
106 -123 99 -65 -6 -76 -4 -126 23 -137 72 -180 263 -86 386 47 62 103 89 188
91 78 2 98 16 98 67 0 56 42 242 76 341 77 220 184 389 353 558 127 126 242
210 391 285 103 52 323 129 328 115 2 -5 -2 -19 -9 -31 -21 -41 -39 -123 -39
-184 0 -129 49 -243 145 -341 171 -172 434 -189 582 -36 83 85 106 227 54 330
-49 96 -148 171 -206 156 -34 -8 -65 -50 -65 -86 0 -23 13 -42 54 -81 64 -62
76 -100 49 -155 -25 -52 -91 -85 -155 -78 -99 11 -183 66 -235 155 -31 51 -42
161 -24 227 16 60 66 122 114 145 48 21 202 26 322 9z"/>
<path d="M4209 7391 c-38 -38 -37 -75 1 -132 71 -107 219 -176 357 -166 170
13 351 159 322 261 -12 42 -44 66 -86 66 -29 0 -44 -9 -83 -49 -63 -65 -115
-91 -182 -91 -70 1 -122 26 -181 89 -60 63 -101 69 -148 22z"/>
<path d="M5527 7400 c-34 -27 -44 -78 -23 -117 25 -50 107 -122 176 -156 60
-30 73 -32 165 -32 92 0 106 3 167 32 77 36 151 101 179 156 17 32 18 44 9 73
-14 42 -44 64 -88 64 -28 0 -43 -10 -87 -55 -62 -65 -105 -85 -180 -85 -71 0
-116 23 -176 89 -39 43 -52 51 -81 51 -20 0 -46 -9 -61 -20z"/>
<path d="M2961 6586 c-92 -33 -155 -123 -155 -223 -1 -35 -2 -63 -4 -63 -2 0
-15 6 -30 14 -44 22 -89 26 -144 15 -42 -9 -62 -21 -103 -63 -80 -81 -93 -154
-50 -282 32 -94 82 -194 182 -360 l78 -130 -65 34 c-59 31 -71 34 -135 30 -58
-3 -77 -8 -113 -33 -94 -67 -121 -204 -62 -321 68 -135 350 -465 674 -789 236
-235 309 -298 514 -442 319 -224 580 -330 937 -379 111 -15 180 -18 465 -14
791 11 830 8 1008 -81 101 -50 104 -51 140 -37 49 18 81 74 67 114 -21 59
-183 145 -340 181 -73 16 -125 18 -585 15 -532 -3 -694 4 -865 39 -393 80
-742 291 -1164 704 -317 311 -654 710 -678 802 -32 128 167 11 437 -257 111
-110 168 -176 416 -479 117 -144 170 -191 216 -191 34 0 68 32 68 64 0 16 -51
92 -142 213 -172 229 -253 350 -489 738 -330 541 -367 605 -378 650 -22 86 25
111 110 57 117 -75 247 -259 503 -710 205 -362 318 -537 458 -709 72 -88 92
-103 140 -103 51 0 88 33 95 85 5 38 1 45 -67 130 -105 132 -240 339 -396 610
-76 132 -175 305 -221 385 -46 80 -126 230 -179 334 -77 152 -94 195 -92 225
3 34 5 36 43 39 52 4 118 -38 172 -111 116 -153 245 -345 439 -652 284 -449
476 -657 736 -798 268 -145 583 -214 1130 -247 150 -9 181 -9 211 4 68 28 84
107 31 157 -24 22 -37 24 -232 36 -487 28 -750 81 -983 198 -116 59 -225 132
-267 179 -102 117 2 261 165 228 28 -6 116 -41 195 -78 251 -117 369 -147 583
-146 140 0 155 2 440 57 324 64 518 52 719 -44 264 -126 479 -364 676 -751 62
-123 198 -430 231 -524 30 -85 114 -113 170 -57 18 18 29 40 29 57 0 65 -207
535 -329 749 -286 498 -632 761 -1060 806 -133 14 -240 4 -481 -46 -248 -51
-364 -62 -493 -47 -140 17 -214 39 -408 121 -197 84 -277 105 -373 97 -124
-10 -241 -87 -262 -173 -4 -13 -9 -23 -13 -23 -10 1 -132 180 -317 463 -203
314 -291 439 -391 558 -77 91 -166 161 -231 179 -49 13 -139 11 -181 -4z"/>
<path d="M5851 2749 c-85 -27 -169 -108 -196 -188 -27 -83 -23 -189 9 -256 40
-80 100 -127 275 -212 175 -86 216 -120 226 -186 15 -99 -43 -157 -158 -157
-110 0 -169 38 -183 119 -10 57 -18 61 -109 61 -102 0 -110 -7 -102 -86 8 -74
48 -155 99 -199 80 -68 230 -106 348 -88 135 21 234 87 285 190 26 51 29 69
30 148 0 79 -3 96 -27 140 -45 86 -91 119 -290 210 -186 84 -228 121 -228 200
0 82 59 135 150 135 89 0 145 -42 164 -123 8 -34 39 -47 107 -47 73 0 89 12
89 64 0 103 -73 212 -178 263 -77 38 -215 43 -311 12z"/>
<path d="M7259 2756 c-134 -36 -234 -145 -286 -311 -15 -51 -18 -94 -17 -285
0 -215 1 -229 26 -302 58 -175 159 -269 319 -298 179 -33 345 45 430 202 l34
63 -1 172 c0 125 -4 176 -13 187 -11 13 -41 16 -185 16 -120 0 -176 -4 -184
-12 -7 -7 -12 -40 -12 -78 0 -38 5 -71 12 -78 8 -8 45 -12 100 -12 l88 0 0
-78 c0 -66 -4 -83 -25 -115 -39 -57 -93 -80 -180 -75 -60 3 -78 8 -109 31 -80
61 -99 148 -94 418 3 177 6 199 27 246 25 58 86 119 126 129 14 3 52 4 84 2
76 -5 122 -38 147 -105 27 -73 27 -73 119 -73 108 0 114 6 91 98 -30 124 -123
221 -245 256 -64 19 -187 20 -252 2z"/>
<path d="M1721 2752 c-93 -1 -160 -7 -168 -13 -10 -9 -13 -120 -13 -575 0
-498 2 -564 16 -578 13 -13 46 -16 203 -16 104 0 213 5 242 10 135 25 254 120
285 228 43 146 -23 311 -144 361 -30 13 -43 31 -22 31 23 0 89 74 110 122 19
43 22 65 18 128 -6 91 -37 158 -98 214 -85 77 -163 93 -429 88z m253 -206 c75
-31 103 -117 64 -195 -33 -66 -68 -81 -190 -81 l-98 0 0 145 0 145 95 0 c59 0
108 -5 129 -14z m36 -488 c57 -29 84 -75 83 -141 -1 -60 -23 -94 -83 -124 -38
-20 -60 -23 -152 -23 l-108 0 0 155 0 155 108 0 c92 0 114 -3 152 -22z"/>
<path d="M2747 2748 c-10 -8 -83 -227 -193 -577 l-176 -565 22 -18 c27 -22
156 -26 184 -5 10 8 30 59 49 127 l32 115 185 0 184 0 32 -114 c20 -70 39
-120 50 -128 21 -16 147 -18 175 -3 10 6 19 20 19 30 0 11 -76 266 -170 568
-129 417 -174 551 -191 565 -26 21 -175 25 -202 5z m168 -485 c33 -125 61
-233 63 -240 3 -10 -25 -13 -127 -12 -72 0 -131 1 -131 2 0 1 27 103 60 227
33 123 60 230 60 237 0 7 3 13 8 13 4 0 34 -102 67 -227z"/>
<path d="M4288 2749 c-10 -5 -18 -18 -18 -28 0 -10 74 -168 165 -350 l165
-332 0 -223 c0 -159 3 -225 12 -234 16 -16 160 -16 176 0 9 9 12 75 12 234 l0
223 165 332 c91 183 165 340 165 350 0 10 -9 23 -19 29 -28 14 -164 13 -183
-2 -9 -7 -62 -118 -118 -246 -57 -128 -104 -231 -105 -230 -2 2 -47 102 -101
223 -53 121 -106 230 -117 243 -18 19 -30 22 -101 22 -45 0 -89 -5 -98 -11z"/>
<path d="M3473 2739 c-10 -10 -13 -140 -13 -581 0 -551 1 -568 19 -578 31 -16
374 -13 449 5 89 21 152 56 204 113 125 140 96 365 -59 458 l-52 31 42 30 c25
17 54 51 71 83 25 47 30 65 30 130 -1 130 -66 231 -187 286 -61 29 -64 29
-277 32 -163 2 -218 0 -227 -9z m417 -197 c55 -27 83 -77 78 -140 -3 -37 -11
-59 -29 -78 -42 -45 -71 -54 -176 -54 l-98 0 0 145 0 145 95 0 c70 0 104 -5
130 -18z m46 -488 c52 -39 69 -71 69 -133 -1 -113 -59 -151 -233 -151 l-107 0
0 156 0 156 122 -4 c104 -2 126 -6 149 -24z"/>
<path d="M6567 2743 c-4 -3 -7 -263 -7 -578 0 -431 3 -574 12 -583 19 -19 153
-16 172 4 14 14 16 80 16 578 0 424 -3 565 -12 574 -13 13 -169 17 -181 5z"/>
<path d="M7957 2744 c-4 -4 -7 -260 -7 -568 0 -492 2 -564 16 -584 13 -19 24
-22 83 -22 108 0 101 -29 103 382 l3 357 180 -350 c99 -192 188 -359 198 -369
15 -16 31 -20 92 -20 54 0 78 4 89 16 14 14 16 79 16 573 0 434 -3 561 -13
575 -10 14 -26 16 -97 14 l-85 -3 -5 -378 -5 -378 -128 245 c-71 135 -159 305
-195 378 l-67 133 -85 3 c-47 1 -89 0 -93 -4z"/>
</g>
</svg>
